<?xml version="1.0" encoding="UTF-8"?>
<svg xmlns="http://www.w3.org/2000/svg" xmlns:xlink="http://www.w3.org/1999/xlink" width="375pt" height="374.999991pt" viewBox="0 0 375 374.999991" version="1.2">
<defs>
<clipPath id="clip1">
  <path d="M 32 37.5 L 333 37.5 L 333 337.5 L 32 337.5 Z M 32 37.5 "/>
</clipPath>
<clipPath id="clip2">
  <path d="M 159 105 L 276 105 L 276 208.257812 L 159 208.257812 Z M 159 105 "/>
</clipPath>
</defs>
<g id="surface1">
<g clip-path="url(#clip1)" clip-rule="nonzero">
<path style=" stroke:none;fill-rule:nonzero;fill:rgb(100%,100%,100%);fill-opacity:1;" d="M 95.964844 243.414062 C 101.121094 238.257812 108.210938 236.273438 114.902344 237.351562 L 127.539062 224.722656 C 91.242188 179.484375 94.066406 113.242188 136.042969 71.289062 C 158.550781 48.789062 188.058594 37.542969 217.5625 37.542969 C 247.066406 37.542969 276.570312 48.789062 299.082031 71.289062 C 344.105469 116.285156 344.105469 189.238281 299.082031 234.234375 C 276.570312 256.734375 247.066406 267.984375 217.5625 267.984375 C 192.050781 267.984375 166.546875 259.554688 145.558594 242.734375 L 132.921875 255.363281 C 134 262.046875 132.015625 269.132812 126.855469 274.285156 L 70.042969 331.0625 C 65.78125 335.328125 60.1875 337.460938 54.597656 337.460938 C 49.011719 337.460938 43.417969 335.328125 39.15625 331.0625 C 30.621094 322.539062 30.621094 308.71875 39.15625 300.191406 Z M 154.0625 216.222656 C 171.023438 233.175781 193.574219 242.511719 217.5625 242.511719 C 241.550781 242.511719 264.101562 233.175781 281.0625 216.222656 C 298.023438 199.273438 307.367188 176.734375 307.367188 152.761719 C 307.367188 128.789062 298.023438 106.25 281.0625 89.296875 C 264.101562 72.347656 241.546875 63.011719 217.5625 63.011719 C 193.574219 63.011719 171.023438 72.347656 154.0625 89.296875 C 137.101562 106.25 127.757812 128.789062 127.757812 152.757812 C 127.757812 176.734375 137.101562 199.273438 154.0625 216.222656 Z M 154.0625 216.222656 "/>
</g>
<g clip-path="url(#clip2)" clip-rule="nonzero">
<path style=" stroke:none;fill-rule:nonzero;fill:rgb(100%,100%,100%);fill-opacity:1;" d="M 266 159.5625 L 217.199219 208.339844 L 168.398438 159.5625 C 166.925781 158.066406 165.613281 156.449219 164.453125 154.699219 C 163.296875 152.953125 162.316406 151.109375 161.515625 149.171875 C 160.710938 147.238281 160.105469 145.242188 159.6875 143.1875 C 159.273438 141.132812 159.058594 139.054688 159.042969 136.960938 C 159.046875 135.914062 159.101562 134.867188 159.207031 133.828125 C 159.3125 132.785156 159.46875 131.75 159.675781 130.722656 C 159.878906 129.695312 160.136719 128.683594 160.445312 127.679688 C 160.75 126.679688 161.105469 125.695312 161.507812 124.726562 C 161.910156 123.761719 162.359375 122.816406 162.855469 121.894531 C 163.351562 120.96875 163.890625 120.074219 164.472656 119.203125 C 165.058594 118.335938 165.679688 117.496094 166.347656 116.6875 C 167.011719 115.878906 167.71875 115.101562 168.460938 114.363281 C 169.199219 113.625 169.976562 112.921875 170.789062 112.257812 C 171.597656 111.59375 172.441406 110.972656 173.3125 110.390625 C 174.183594 109.8125 175.082031 109.273438 176.007812 108.78125 C 176.929688 108.289062 177.878906 107.839844 178.84375 107.441406 C 179.8125 107.039062 180.800781 106.6875 181.800781 106.386719 C 182.804688 106.082031 183.820312 105.828125 184.847656 105.625 C 185.875 105.421875 186.910156 105.265625 187.953125 105.164062 C 188.996094 105.0625 190.042969 105.011719 191.089844 105.011719 C 193.1875 105.007812 195.261719 105.214844 197.320312 105.625 C 199.375 106.039062 201.371094 106.648438 203.304688 107.457031 C 205.238281 108.269531 207.074219 109.261719 208.808594 110.4375 C 210.546875 111.613281 212.148438 112.945312 213.621094 114.441406 L 217.28125 118.019531 L 220.859375 114.441406 C 221.597656 113.703125 222.371094 113.003906 223.179688 112.339844 C 223.988281 111.675781 224.828125 111.054688 225.695312 110.476562 C 226.566406 109.894531 227.460938 109.359375 228.382812 108.867188 C 229.304688 108.375 230.246094 107.929688 231.214844 107.53125 C 232.179688 107.128906 233.164062 106.777344 234.164062 106.476562 C 235.164062 106.171875 236.175781 105.917969 237.199219 105.714844 C 238.226562 105.511719 239.257812 105.359375 240.296875 105.257812 C 241.339844 105.15625 242.382812 105.105469 243.425781 105.105469 C 244.472656 105.105469 245.515625 105.15625 246.554688 105.257812 C 247.59375 105.359375 248.628906 105.515625 249.652344 105.71875 C 250.675781 105.921875 251.691406 106.175781 252.691406 106.480469 C 253.691406 106.78125 254.671875 107.132812 255.636719 107.535156 C 256.605469 107.933594 257.546875 108.378906 258.46875 108.871094 C 259.390625 109.363281 260.285156 109.902344 261.15625 110.480469 C 262.023438 111.0625 262.863281 111.683594 263.671875 112.347656 C 264.480469 113.007812 265.253906 113.710938 265.992188 114.449219 C 266.730469 115.1875 267.429688 115.960938 268.09375 116.769531 C 268.757812 117.574219 269.378906 118.414062 269.960938 119.28125 C 270.539062 120.152344 271.078125 121.046875 271.570312 121.96875 C 272.0625 122.886719 272.507812 123.832031 272.910156 124.796875 C 273.308594 125.761719 273.660156 126.746094 273.964844 127.746094 C 274.269531 128.742188 274.523438 129.757812 274.726562 130.78125 C 274.929688 131.804688 275.082031 132.835938 275.1875 133.878906 C 275.289062 134.917969 275.339844 135.957031 275.339844 137.003906 C 275.339844 138.046875 275.289062 139.089844 275.1875 140.128906 C 275.085938 141.167969 274.933594 142.203125 274.726562 143.226562 C 274.523438 144.25 274.269531 145.261719 273.96875 146.261719 C 273.664062 147.261719 273.3125 148.246094 272.914062 149.210938 C 272.515625 150.175781 272.066406 151.121094 271.574219 152.039062 C 271.082031 152.960938 270.546875 153.859375 269.964844 154.726562 C 269.386719 155.59375 268.765625 156.433594 268.101562 157.242188 C 267.4375 158.050781 266.738281 158.824219 266 159.5625 Z M 266 159.5625 "/>
</g>
</g>
</svg>
