<?xml version="1.0" encoding="UTF-8"?>
<svg xmlns="http://www.w3.org/2000/svg" xmlns:xlink="http://www.w3.org/1999/xlink" width="375pt" height="374.999991pt" viewBox="0 0 375 374.999991" version="1.2">
<defs>
<clipPath id="clip1">
  <path d="M 37.5 40.875 L 337.5 40.875 L 337.5 334 L 37.5 334 Z M 37.5 40.875 "/>
</clipPath>
</defs>
<g id="surface1">
<g clip-path="url(#clip1)" clip-rule="nonzero">
<path style=" stroke:none;fill-rule:nonzero;fill:rgb(100%,100%,100%);fill-opacity:1;" d="M 168.042969 40.875 C 166.140625 40.847656 164.335938 41.664062 163.089844 43.109375 C 161.847656 44.53125 161.289062 46.4375 161.566406 48.292969 C 162.203125 52.863281 160.832031 57.484375 157.65625 63.125 C 154.507812 68.789062 149.65625 75.136719 144.726562 82.328125 C 134.847656 96.652344 124.585938 115.191406 129.082031 139.601562 C 131.164062 150.753906 136.550781 159.183594 143.558594 164.542969 C 150.570312 169.929688 158.925781 172.339844 166.976562 172.976562 C 175.054688 173.636719 182.878906 172.59375 189.53125 170.691406 C 189.988281 170.5625 190.394531 170.386719 190.828125 170.207031 C 188.769531 179.554688 185.722656 189.6875 181.402344 201.144531 C 180.488281 203.328125 180.84375 205.867188 182.34375 207.722656 C 183.816406 209.578125 186.203125 210.464844 188.566406 210.058594 C 190.902344 209.628906 192.832031 207.976562 193.597656 205.714844 C 198.800781 191.796875 202.28125 179.351562 204.363281 167.847656 C 206.523438 169.21875 208.960938 170.488281 212.316406 171.171875 C 219.628906 172.648438 228.773438 170.511719 237.382812 162.742188 C 259.582031 142.675781 262.328125 80.980469 170.558594 41.410156 C 169.769531 41.054688 168.90625 40.875 168.042969 40.875 Z M 173.683594 57.636719 C 250.871094 94.796875 240.078125 142.777344 228.648438 153.089844 C 222.246094 158.878906 218.4375 159.132812 214.878906 158.421875 C 211.984375 157.839844 209.089844 155.960938 206.269531 153.953125 C 208.480469 128.171875 203.042969 106.9375 193.496094 83.902344 C 192.503906 81.414062 190.089844 79.785156 187.398438 79.785156 C 185.238281 79.8125 183.207031 80.929688 182.015625 82.757812 C 180.820312 84.585938 180.617188 86.875 181.503906 88.878906 C 190.929688 111.6875 196.085938 130.660156 193.394531 154.992188 C 191.640625 156.035156 189.253906 157.253906 185.976562 158.195312 C 180.742188 159.667969 174.242188 160.53125 168.019531 160.023438 C 161.820312 159.515625 155.980469 157.6875 151.457031 154.230469 C 146.960938 150.777344 143.433594 145.722656 141.882812 137.214844 C 138.175781 117.300781 146.046875 103.28125 155.421875 89.667969 C 160.09375 82.886719 165.148438 76.382812 169.007812 69.472656 C 171.09375 65.765625 172.691406 61.804688 173.683594 57.636719 Z M 57.457031 99.394531 C 52.046875 99.394531 47.371094 101.910156 43.917969 105.363281 C 40.464844 108.816406 37.949219 113.492188 37.949219 118.902344 L 37.949219 203.886719 C 37.949219 216.027344 39.320312 223.699219 42.164062 229.640625 C 45.035156 235.585938 48.945312 238.988281 52.527344 242.925781 C 59.488281 251.230469 100.507812 300.378906 102.972656 303.324219 L 102.972656 326.972656 C 102.945312 329.308594 104.164062 331.492188 106.195312 332.6875 C 108.230469 333.855469 110.71875 333.855469 112.75 332.6875 C 114.78125 331.492188 116 329.308594 115.976562 326.972656 L 115.976562 300.964844 C 115.976562 299.441406 115.441406 297.964844 114.453125 296.796875 C 114.453125 296.796875 69.394531 242.800781 62.308594 234.367188 C 62.257812 234.289062 62.179688 234.238281 62.128906 234.164062 C 58.089844 229.71875 55.550781 227.457031 53.898438 223.976562 C 52.222656 220.523438 50.953125 215.039062 50.953125 203.886719 L 50.953125 118.902344 C 50.953125 117.808594 51.691406 115.980469 53.113281 114.558594 C 54.535156 113.136719 56.363281 112.398438 57.457031 112.398438 C 58.546875 112.398438 60.375 113.136719 61.800781 114.558594 C 63.222656 115.980469 63.957031 117.808594 63.957031 118.902344 L 63.957031 196.929688 C 63.957031 198.65625 64.644531 200.304688 65.863281 201.527344 L 72.238281 207.902344 C 72.617188 212.828125 75.160156 217.324219 78.867188 221.03125 C 80.898438 223.0625 104.46875 246.328125 117.828125 259.996094 C 119.457031 261.695312 121.84375 262.40625 124.128906 261.824219 C 126.414062 261.265625 128.21875 259.511719 128.828125 257.25 C 129.4375 254.964844 128.800781 252.550781 127.125 250.902344 C 113.589844 237.058594 89.585938 213.363281 88.0625 211.835938 C 85.574219 209.347656 85.089844 207.773438 85.089844 206.679688 C 85.089844 205.589844 85.574219 204.015625 88.0625 201.527344 C 90.550781 199.035156 92.125 198.554688 93.21875 198.554688 C 94.308594 198.554688 95.886719 199.035156 98.375 201.527344 C 101.371094 204.523438 134.136719 237.210938 137.335938 240.488281 C 137.363281 240.511719 137.414062 240.5625 137.4375 240.589844 C 150.46875 253.339844 154.988281 265.050781 154.988281 287.960938 L 154.988281 326.972656 C 154.964844 329.308594 156.183594 331.492188 158.214844 332.6875 C 160.246094 333.855469 162.734375 333.855469 164.769531 332.6875 C 166.800781 331.492188 168.019531 329.308594 167.992188 326.972656 L 167.992188 287.960938 C 167.992188 263.066406 161.59375 246.023438 146.53125 231.292969 C 142.570312 227.253906 110.488281 195.25 107.570312 192.332031 C 103.554688 188.316406 98.628906 185.550781 93.21875 185.550781 C 87.808594 185.550781 82.878906 188.316406 78.867188 192.332031 C 78.230469 192.964844 77.671875 193.675781 77.113281 194.386719 L 76.960938 194.234375 L 76.960938 118.902344 C 76.960938 113.492188 74.449219 108.816406 70.992188 105.363281 C 67.539062 101.910156 62.867188 99.394531 57.457031 99.394531 Z M 317.542969 99.394531 C 312.132812 99.394531 307.460938 101.910156 304.007812 105.363281 C 300.550781 108.816406 298.039062 113.492188 298.039062 118.902344 L 298.039062 194.234375 L 297.910156 194.386719 C 297.328125 193.675781 296.769531 192.964844 296.132812 192.332031 C 292.121094 188.316406 287.191406 185.550781 281.78125 185.550781 C 276.371094 185.550781 271.445312 188.316406 267.429688 192.332031 C 264.511719 195.25 232.429688 227.253906 228.46875 231.292969 C 213.40625 246.023438 207.007812 263.066406 207.007812 287.960938 L 207.007812 326.972656 C 206.980469 329.308594 208.199219 331.492188 210.230469 332.6875 C 212.265625 333.855469 214.753906 333.855469 216.785156 332.6875 C 218.816406 331.492188 220.035156 329.308594 220.011719 326.972656 L 220.011719 287.960938 C 220.011719 265.050781 224.53125 253.339844 237.5625 240.589844 C 237.585938 240.5625 237.636719 240.511719 237.664062 240.488281 C 240.863281 237.210938 273.628906 204.523438 276.625 201.527344 C 279.113281 199.035156 280.691406 198.554688 281.78125 198.554688 C 282.875 198.554688 284.449219 199.035156 286.9375 201.527344 C 289.425781 204.015625 289.910156 205.589844 289.910156 206.679688 C 289.910156 207.773438 289.425781 209.347656 286.9375 211.835938 C 285.414062 213.363281 261.410156 237.058594 247.875 250.902344 C 246.199219 252.550781 245.5625 254.964844 246.171875 257.25 C 246.78125 259.511719 248.585938 261.265625 250.871094 261.824219 C 253.15625 262.40625 255.542969 261.695312 257.171875 259.996094 C 270.53125 246.328125 294.101562 223.0625 296.132812 221.03125 C 299.839844 217.324219 302.382812 212.828125 302.761719 207.902344 L 309.136719 201.527344 C 310.355469 200.304688 311.042969 198.65625 311.042969 196.929688 L 311.042969 118.902344 C 311.042969 117.808594 311.777344 115.980469 313.199219 114.558594 C 314.625 113.136719 316.453125 112.398438 317.542969 112.398438 C 318.636719 112.398438 320.464844 113.136719 321.886719 114.558594 C 323.308594 115.980469 324.046875 117.808594 324.046875 118.902344 L 324.046875 203.886719 C 324.046875 215.039062 322.777344 220.523438 321.101562 223.976562 C 319.449219 227.457031 316.910156 229.71875 312.871094 234.164062 C 312.820312 234.238281 312.742188 234.289062 312.691406 234.367188 C 305.605469 242.800781 260.546875 296.796875 260.546875 296.796875 C 259.558594 297.964844 259.023438 299.441406 259.023438 300.964844 L 259.023438 326.972656 C 259 329.308594 260.21875 331.492188 262.25 332.6875 C 264.28125 333.855469 266.769531 333.855469 268.804688 332.6875 C 270.835938 331.492188 272.054688 329.308594 272.027344 326.972656 L 272.027344 303.324219 C 274.492188 300.378906 315.511719 251.230469 322.496094 242.925781 C 326.054688 238.988281 329.964844 235.585938 332.808594 229.640625 C 335.679688 223.699219 337.050781 216.027344 337.050781 203.886719 L 337.050781 118.902344 C 337.050781 113.492188 334.535156 108.816406 331.082031 105.363281 C 327.628906 101.910156 322.953125 99.394531 317.542969 99.394531 Z M 317.542969 99.394531 "/>
</g>
</g>
</svg>
