<?xml version="1.0" encoding="UTF-8"?>
<svg xmlns="http://www.w3.org/2000/svg" xmlns:xlink="http://www.w3.org/1999/xlink" width="375pt" height="374.999991pt" viewBox="0 0 375 374.999991" version="1.2">
<defs>
<clipPath id="clip1">
  <path d="M 76 37.5 L 304 37.5 L 304 337.5 L 76 337.5 Z M 76 37.5 "/>
</clipPath>
</defs>
<g id="surface1">
<g clip-path="url(#clip1)" clip-rule="nonzero">
<path style=" stroke:none;fill-rule:nonzero;fill:rgb(100%,100%,100%);fill-opacity:1;" d="M 130.777344 283 C 132.003906 271.824219 134.394531 260.6875 138.734375 250.285156 C 147.460938 229.332031 162.898438 213.070312 179.277344 197.816406 C 207.382812 171.644531 235.726562 145.722656 263.941406 119.671875 C 243.566406 138.484375 216.664062 150.460938 194.253906 166.71875 C 169.367188 184.769531 144.453125 206.144531 128.699219 232.960938 C 123.722656 241.429688 119.625 250.414062 116.652344 259.78125 C 110 280.710938 109.078125 305.667969 114.800781 327.53125 C 99.410156 318.109375 87.578125 302.605469 81.523438 284.4375 C 69.285156 247.707031 81.421875 207.09375 105.980469 178.289062 C 137.8125 140.957031 188.007812 118.953125 231.835938 99.480469 C 234.347656 98.363281 236.863281 97.253906 239.382812 96.144531 C 253 90.152344 266.835938 84.136719 278.445312 74.828125 C 290.050781 65.519531 299.363281 52.339844 300.648438 37.515625 C 300.917969 46.667969 303.335938 54.164062 303.605469 63.316406 C 305.804688 138.296875 291.570312 211.820312 247.238281 273.902344 C 233.136719 293.648438 216.246094 311.960938 195.121094 323.90625 C 183.941406 330.222656 170.425781 335.136719 156.777344 336.761719 C 150.820312 337.472656 145.050781 337.3125 139.488281 336.496094 C 130.566406 320.878906 128.886719 300.253906 130.777344 283 "/>
</g>
</g>
</svg>
