<?xml version="1.0" encoding="UTF-8"?>
<svg xmlns="http://www.w3.org/2000/svg" xmlns:xlink="http://www.w3.org/1999/xlink" width="375pt" height="374.999991pt" viewBox="0 0 375 374.999991" version="1.2">
<defs>
<clipPath id="clip1">
  <path d="M 37.5 37.5 L 337.5 37.5 L 337.5 337.5 L 37.5 337.5 Z M 37.5 37.5 "/>
</clipPath>
</defs>
<g id="surface1">
<g clip-path="url(#clip1)" clip-rule="nonzero">
<path style=" stroke:none;fill-rule:nonzero;fill:rgb(100%,100%,100%);fill-opacity:1;" d="M 291.847656 37.5 C 266.710938 37.5 246.195312 58.015625 246.195312 83.152344 C 246.195312 95.171875 250.917969 106.101562 258.5625 114.269531 L 203.96875 180.976562 L 128.28125 180.976562 C 125.09375 158.917969 106.070312 141.847656 83.152344 141.847656 C 58.015625 141.847656 37.5 162.363281 37.5 187.5 C 37.5 212.636719 58.015625 233.152344 83.152344 233.152344 C 106.070312 233.152344 125.09375 216.082031 128.28125 194.023438 L 203.816406 194.023438 L 256.207031 263.417969 C 249.957031 271.230469 246.195312 281.109375 246.195312 291.847656 C 246.195312 316.984375 266.710938 337.5 291.847656 337.5 C 316.984375 337.5 337.5 316.984375 337.5 291.847656 C 337.5 266.710938 316.984375 246.195312 291.847656 246.195312 C 282.164062 246.195312 273.191406 249.269531 265.785156 254.449219 L 215.359375 187.664062 L 268.730469 122.421875 C 275.523438 126.445312 283.410156 128.804688 291.847656 128.804688 C 316.984375 128.804688 337.5 108.289062 337.5 83.152344 C 337.5 58.015625 316.984375 37.5 291.847656 37.5 Z M 291.847656 50.542969 C 309.933594 50.542969 324.457031 65.066406 324.457031 83.152344 C 324.457031 101.238281 309.933594 115.761719 291.847656 115.761719 C 273.761719 115.761719 259.238281 101.238281 259.238281 83.152344 C 259.238281 65.066406 273.761719 50.542969 291.847656 50.542969 Z M 83.152344 154.890625 C 101.238281 154.890625 115.761719 169.414062 115.761719 187.5 C 115.761719 205.585938 101.238281 220.109375 83.152344 220.109375 C 65.066406 220.109375 50.542969 205.585938 50.542969 187.5 C 50.542969 169.414062 65.066406 154.890625 83.152344 154.890625 Z M 291.847656 259.238281 C 309.933594 259.238281 324.457031 273.761719 324.457031 291.847656 C 324.457031 309.933594 309.933594 324.457031 291.847656 324.457031 C 273.761719 324.457031 259.238281 309.933594 259.238281 291.847656 C 259.238281 273.761719 273.761719 259.238281 291.847656 259.238281 Z M 291.847656 259.238281 "/>
</g>
</g>
</svg>
