<?xml version="1.0" encoding="UTF-8"?>
<svg xmlns="http://www.w3.org/2000/svg" xmlns:xlink="http://www.w3.org/1999/xlink" width="375pt" height="374.999991pt" viewBox="0 0 375 374.999991" version="1.2">
<defs>
<clipPath id="clip1">
  <path d="M 37.5 97 L 250 97 L 250 309.5625 L 37.5 309.5625 Z M 37.5 97 "/>
</clipPath>
<clipPath id="clip2">
  <path d="M 180 65.8125 L 337.5 65.8125 L 337.5 224 L 180 224 Z M 180 65.8125 "/>
</clipPath>
</defs>
<g id="surface1">
<path style=" stroke:none;fill-rule:nonzero;fill:rgb(100%,100%,100%);fill-opacity:1;" d="M 143.609375 157.296875 C 143.597656 157.296875 143.597656 157.296875 143.609375 157.296875 C 130.917969 157.296875 119.382812 162.464844 111.070312 170.789062 C 102.761719 179.101562 97.589844 190.667969 97.601562 203.363281 C 97.601562 216.070312 102.761719 227.625 111.070312 235.9375 C 119.375 244.265625 130.910156 249.429688 143.585938 249.429688 C 143.585938 249.429688 143.597656 249.429688 143.597656 249.429688 C 156.285156 249.429688 167.820312 244.265625 176.121094 235.9375 C 184.433594 227.625 189.601562 216.0625 189.59375 203.363281 L 178.28125 203.363281 C 178.28125 212.980469 174.402344 221.621094 168.128906 227.929688 C 161.828125 234.230469 153.199219 238.101562 143.597656 238.101562 C 133.996094 238.101562 125.367188 234.21875 119.066406 227.929688 C 112.78125 221.621094 108.910156 212.96875 108.910156 203.363281 C 108.910156 193.746094 112.792969 185.105469 119.066406 178.796875 C 125.367188 172.5 134.007812 168.625 143.597656 168.625 C 153.199219 168.625 161.828125 172.5 168.128906 178.796875 C 174.414062 185.105469 178.28125 193.746094 178.28125 203.363281 L 189.59375 203.363281 C 189.59375 190.65625 184.433594 179.101562 176.121094 170.789062 C 167.820312 162.464844 156.285156 157.296875 143.609375 157.296875 "/>
<g clip-path="url(#clip1)" clip-rule="nonzero">
<path style=" stroke:none;fill-rule:nonzero;fill:rgb(100%,100%,100%);fill-opacity:1;" d="M 189.5 127.382812 C 181.925781 122.785156 173.613281 119.308594 164.789062 117.144531 L 163.445312 122.648438 L 169.101562 122.648438 L 169.101562 112.523438 C 169.101562 108.308594 167.378906 104.449219 164.621094 101.683594 C 161.875 98.921875 158.003906 97.1875 153.796875 97.199219 L 133.40625 97.199219 C 129.199219 97.199219 125.34375 98.921875 122.585938 101.683594 C 119.824219 104.4375 118.09375 108.308594 118.105469 112.523438 L 118.105469 122.648438 L 123.761719 122.648438 L 122.414062 117.144531 C 113.59375 119.308594 105.269531 122.785156 97.703125 127.382812 L 100.632812 132.230469 L 104.636719 128.222656 L 97.488281 121.074219 C 96.007812 119.589844 94.265625 118.457031 92.421875 117.710938 C 90.578125 116.964844 88.625 116.589844 86.667969 116.589844 C 84.710938 116.589844 82.753906 116.964844 80.910156 117.710938 C 79.066406 118.457031 77.324219 119.589844 75.84375 121.074219 L 61.425781 135.515625 C 59.941406 137 58.8125 138.746094 58.066406 140.589844 C 57.320312 142.4375 56.945312 144.398438 56.945312 146.355469 C 56.945312 148.316406 57.320312 150.277344 58.066406 152.121094 C 58.8125 153.96875 59.941406 155.710938 61.425781 157.195312 L 68.570312 164.355469 L 72.5625 160.34375 L 67.722656 157.410156 C 63.132812 165 59.660156 173.324219 57.5 182.160156 L 62.996094 183.507812 L 62.996094 177.84375 L 52.886719 177.84375 C 48.679688 177.84375 44.824219 179.566406 42.0625 182.328125 C 39.304688 185.082031 37.574219 188.957031 37.585938 193.167969 L 37.585938 213.589844 C 37.585938 217.804688 39.304688 221.667969 42.0625 224.429688 C 44.8125 227.195312 48.679688 228.929688 52.886719 228.917969 L 62.996094 228.917969 L 62.996094 223.253906 L 57.5 224.601562 C 59.660156 233.4375 63.132812 241.773438 67.722656 249.351562 L 72.5625 246.417969 L 68.570312 242.40625 L 61.425781 249.566406 C 59.941406 251.050781 58.8125 252.792969 58.066406 254.640625 C 57.320312 256.484375 56.945312 258.445312 56.945312 260.40625 C 56.945312 262.363281 57.320312 264.324219 58.066406 266.171875 C 58.8125 268.015625 59.941406 269.761719 61.425781 271.246094 L 75.84375 285.6875 C 77.324219 287.167969 79.066406 288.300781 80.910156 289.050781 C 82.753906 289.796875 84.710938 290.171875 86.667969 290.171875 C 88.625 290.171875 90.578125 289.796875 92.421875 289.050781 C 94.265625 288.300781 96.007812 287.167969 97.488281 285.6875 L 104.636719 278.527344 L 100.632812 274.527344 L 97.703125 279.367188 C 105.28125 283.964844 113.59375 287.441406 122.414062 289.605469 L 123.761719 284.101562 L 118.105469 284.101562 L 118.105469 294.226562 C 118.105469 298.441406 119.824219 302.300781 122.585938 305.066406 C 125.332031 307.828125 129.199219 309.5625 133.40625 309.550781 L 153.796875 309.550781 C 158.003906 309.550781 161.863281 307.828125 164.621094 305.066406 C 167.378906 302.3125 169.109375 298.441406 169.101562 294.226562 L 169.101562 284.101562 L 163.445312 284.101562 L 164.789062 289.605469 C 173.613281 287.441406 181.925781 283.964844 189.5 279.367188 L 186.574219 274.527344 L 182.582031 278.527344 L 189.714844 285.6875 C 191.199219 287.167969 192.941406 288.300781 194.78125 289.050781 C 196.625 289.796875 198.582031 290.171875 200.539062 290.171875 C 202.496094 290.171875 204.453125 289.796875 206.296875 289.050781 C 208.140625 288.300781 209.882812 287.167969 211.363281 285.6875 L 225.78125 271.246094 C 227.261719 269.761719 228.394531 268.015625 229.140625 266.171875 C 229.886719 264.324219 230.261719 262.363281 230.261719 260.40625 C 230.261719 258.445312 229.886719 256.484375 229.140625 254.640625 C 228.394531 252.792969 227.261719 251.050781 225.78125 249.566406 L 218.632812 242.40625 L 214.640625 246.417969 L 219.484375 249.351562 C 224.074219 241.761719 227.546875 233.4375 229.707031 224.601562 L 224.210938 223.253906 L 224.210938 228.917969 L 234.320312 228.917969 C 238.527344 228.917969 242.394531 227.195312 245.144531 224.429688 C 247.902344 221.679688 249.632812 217.804688 249.621094 213.589844 C 249.621094 210.464844 247.089844 207.929688 243.96875 207.929688 C 240.84375 207.929688 238.3125 210.464844 238.3125 213.589844 C 238.3125 214.714844 237.871094 215.675781 237.148438 216.421875 C 236.414062 217.160156 235.441406 217.589844 234.320312 217.601562 L 219.777344 217.601562 L 218.726562 221.917969 C 216.835938 229.628906 213.804688 236.890625 209.8125 243.492188 L 207.515625 247.289062 L 217.796875 257.585938 C 218.191406 257.992188 218.476562 258.421875 218.679688 258.898438 C 218.871094 259.375 218.972656 259.894531 218.972656 260.40625 C 218.972656 260.914062 218.871094 261.433594 218.679688 261.910156 C 218.488281 262.386719 218.203125 262.828125 217.796875 263.226562 L 203.378906 277.667969 C 202.980469 278.074219 202.542969 278.347656 202.066406 278.550781 C 201.589844 278.742188 201.070312 278.84375 200.5625 278.84375 C 200.042969 278.84375 199.53125 278.742188 199.058594 278.550781 C 198.582031 278.359375 198.140625 278.074219 197.734375 277.667969 L 187.453125 267.371094 L 183.667969 269.671875 C 177.074219 273.679688 169.824219 276.703125 162.121094 278.59375 L 157.8125 279.648438 L 157.8125 294.214844 C 157.8125 295.335938 157.371094 296.300781 156.648438 297.046875 C 155.914062 297.78125 154.941406 298.214844 153.820312 298.222656 L 133.429688 298.222656 C 132.3125 298.222656 131.347656 297.78125 130.601562 297.046875 C 129.867188 296.308594 129.4375 295.347656 129.425781 294.214844 L 129.425781 279.648438 L 125.117188 278.59375 C 117.417969 276.703125 110.167969 273.667969 103.574219 269.671875 L 99.785156 267.371094 L 89.503906 277.667969 C 89.097656 278.074219 88.667969 278.347656 88.195312 278.550781 C 87.71875 278.742188 87.199219 278.84375 86.6875 278.84375 C 86.167969 278.84375 85.660156 278.742188 85.183594 278.550781 C 84.710938 278.359375 84.269531 278.074219 83.863281 277.667969 L 69.441406 263.226562 C 69.046875 262.816406 68.765625 262.386719 68.5625 261.910156 C 68.367188 261.433594 68.265625 260.914062 68.265625 260.40625 C 68.265625 259.894531 68.367188 259.375 68.5625 258.898438 C 68.753906 258.421875 69.035156 257.980469 69.441406 257.585938 L 79.722656 247.289062 L 77.425781 243.492188 C 73.421875 236.890625 70.402344 229.628906 68.515625 221.917969 L 67.453125 217.601562 L 52.886719 217.601562 C 51.765625 217.601562 50.804688 217.160156 50.058594 216.421875 C 49.324219 215.6875 48.894531 214.722656 48.882812 213.589844 L 48.882812 193.167969 C 48.882812 192.046875 49.324219 191.085938 50.058594 190.339844 C 50.792969 189.601562 51.753906 189.171875 52.886719 189.171875 L 67.429688 189.171875 L 68.492188 184.855469 C 70.382812 177.140625 73.414062 169.882812 77.40625 163.277344 L 79.699219 159.484375 L 69.421875 149.1875 C 69.023438 148.78125 68.742188 148.351562 68.539062 147.863281 C 68.347656 147.386719 68.242188 146.878906 68.242188 146.355469 C 68.242188 145.835938 68.347656 145.324219 68.539062 144.851562 C 68.730469 144.375 69.011719 143.933594 69.421875 143.535156 L 83.839844 129.09375 C 84.246094 128.699219 84.675781 128.414062 85.152344 128.210938 C 85.625 128.019531 86.148438 127.917969 86.65625 127.917969 C 87.175781 127.917969 87.683594 128.019531 88.160156 128.210938 C 88.632812 128.402344 89.074219 128.6875 89.484375 129.09375 L 99.761719 139.390625 L 103.550781 137.089844 C 110.144531 133.09375 117.394531 130.058594 125.09375 128.164062 L 129.40625 127.113281 L 129.40625 112.546875 C 129.40625 111.425781 129.84375 110.460938 130.582031 109.714844 C 131.316406 108.976562 132.277344 108.546875 133.40625 108.546875 L 153.796875 108.546875 C 154.917969 108.546875 155.878906 108.988281 156.625 109.714844 C 157.359375 110.449219 157.789062 111.425781 157.789062 112.546875 L 157.789062 127.113281 L 162.097656 128.164062 C 169.800781 130.058594 177.050781 133.09375 183.644531 137.089844 C 186.3125 138.710938 189.796875 137.863281 191.414062 135.1875 C 193.019531 132.492188 192.171875 129.003906 189.5 127.382812 "/>
</g>
<path style=" stroke:none;fill-rule:nonzero;fill:rgb(100%,100%,100%);fill-opacity:1;" d="M 258.941406 109.441406 C 258.941406 109.441406 258.929688 109.441406 258.929688 109.441406 C 249.304688 109.441406 240.527344 113.375 234.230469 119.695312 C 227.917969 126.003906 223.996094 134.792969 223.996094 144.429688 C 223.996094 154.070312 227.917969 162.859375 234.230469 169.167969 C 240.527344 175.488281 249.292969 179.417969 258.917969 179.417969 C 258.917969 179.417969 258.917969 179.417969 258.929688 179.417969 C 268.554688 179.417969 277.328125 175.488281 283.628906 169.167969 C 289.9375 162.859375 293.863281 154.070312 293.863281 144.429688 L 282.554688 144.429688 C 282.554688 150.976562 279.917969 156.867188 275.632812 161.160156 C 271.335938 165.453125 265.464844 168.09375 258.929688 168.09375 C 252.390625 168.09375 246.511719 165.453125 242.226562 161.160156 C 237.9375 156.855469 235.304688 150.976562 235.304688 144.429688 C 235.304688 137.882812 237.9375 131.996094 242.226562 127.703125 C 246.523438 123.410156 252.390625 120.769531 258.929688 120.769531 C 265.464844 120.769531 271.347656 123.410156 275.632812 127.703125 C 279.917969 132.003906 282.542969 137.882812 282.554688 144.429688 L 293.863281 144.429688 C 293.863281 134.792969 289.9375 126.003906 283.628906 119.695312 C 277.328125 113.375 268.566406 109.441406 258.941406 109.441406 "/>
<g clip-path="url(#clip2)" clip-rule="nonzero">
<path style=" stroke:none;fill-rule:nonzero;fill:rgb(100%,100%,100%);fill-opacity:1;" d="M 226.890625 99.949219 L 230.679688 97.652344 C 235.328125 94.832031 240.4375 92.691406 245.878906 91.355469 L 250.1875 90.300781 L 250.1875 78.5 C 250.1875 78.113281 250.324219 77.808594 250.582031 77.546875 C 250.84375 77.296875 251.148438 77.152344 251.53125 77.152344 L 266.324219 77.152344 C 266.722656 77.152344 267.015625 77.296875 267.273438 77.546875 C 267.523438 77.808594 267.671875 78.113281 267.671875 78.5 L 267.671875 90.289062 L 271.980469 91.34375 C 277.417969 92.679688 282.53125 94.820312 287.179688 97.640625 L 290.96875 99.941406 L 299.292969 91.601562 C 299.4375 91.46875 299.574219 91.375 299.734375 91.308594 C 299.890625 91.242188 300.0625 91.207031 300.242188 91.207031 C 300.410156 91.207031 300.59375 91.242188 300.75 91.308594 C 300.910156 91.375 301.042969 91.46875 301.191406 91.601562 L 311.652344 102.082031 C 311.789062 102.226562 311.878906 102.363281 311.945312 102.523438 C 312.015625 102.679688 312.046875 102.851562 312.046875 103.03125 C 312.046875 103.214844 312.015625 103.382812 311.945312 103.542969 C 311.878906 103.699219 311.789062 103.835938 311.652344 103.984375 L 303.328125 112.320312 L 305.625 116.113281 C 308.441406 120.769531 310.578125 125.890625 311.914062 131.335938 L 312.964844 135.652344 L 324.738281 135.652344 C 325.121094 135.652344 325.425781 135.800781 325.6875 136.050781 C 325.9375 136.308594 326.082031 136.617188 326.082031 137 L 326.082031 151.816406 C 326.082031 152.210938 325.9375 152.507812 325.6875 152.765625 C 325.425781 153.015625 325.121094 153.164062 324.738281 153.164062 L 312.964844 153.164062 L 311.914062 157.480469 C 310.578125 162.925781 308.441406 168.046875 305.625 172.703125 L 303.328125 176.496094 L 311.652344 184.832031 C 311.789062 184.980469 311.878906 185.117188 311.945312 185.273438 C 312.015625 185.433594 312.046875 185.601562 312.046875 185.785156 C 312.046875 185.964844 312.015625 186.136719 311.945312 186.292969 C 311.878906 186.453125 311.789062 186.589844 311.652344 186.734375 L 301.191406 197.214844 C 301.042969 197.359375 300.910156 197.449219 300.75 197.507812 C 300.59375 197.574219 300.421875 197.609375 300.242188 197.609375 C 300.0625 197.609375 299.890625 197.574219 299.734375 197.507812 C 299.574219 197.441406 299.4375 197.347656 299.292969 197.214844 L 290.96875 188.875 L 287.179688 191.175781 C 282.53125 193.996094 277.417969 196.136719 271.980469 197.472656 L 267.671875 198.539062 L 267.671875 210.328125 C 267.671875 210.726562 267.523438 211.019531 267.273438 211.28125 C 267.015625 211.53125 266.710938 211.675781 266.324219 211.675781 L 251.53125 211.675781 C 251.148438 211.675781 250.84375 211.542969 250.582031 211.28125 C 250.335938 211.019531 250.1875 210.714844 250.1875 210.328125 L 250.1875 198.539062 L 245.878906 197.472656 C 240.4375 196.136719 235.328125 193.996094 230.679688 191.175781 L 226.890625 188.875 L 218.566406 197.214844 C 218.417969 197.359375 218.285156 197.449219 218.125 197.507812 C 217.96875 197.574219 217.796875 197.609375 217.617188 197.609375 C 217.433594 197.609375 217.265625 197.574219 217.109375 197.507812 C 216.949219 197.441406 216.8125 197.347656 216.667969 197.214844 L 206.207031 186.734375 C 206.058594 186.589844 205.96875 186.453125 205.910156 186.292969 C 205.84375 186.136719 205.808594 185.964844 205.808594 185.785156 C 205.808594 185.601562 205.84375 185.433594 205.910156 185.273438 C 205.980469 185.117188 206.070312 184.980469 206.207031 184.832031 L 214.527344 176.496094 L 212.234375 172.703125 C 209.417969 168.046875 207.28125 162.925781 205.945312 157.480469 L 204.882812 153.164062 L 193.109375 153.164062 C 192.726562 153.164062 192.417969 153.015625 192.160156 152.765625 C 191.910156 152.507812 191.761719 152.199219 191.761719 151.816406 L 191.761719 137 C 191.761719 136.605469 191.898438 136.308594 192.160156 136.050781 C 192.417969 135.800781 192.726562 135.652344 193.109375 135.652344 L 204.882812 135.652344 L 205.945312 131.335938 C 207.28125 125.890625 209.417969 120.769531 212.234375 116.113281 L 214.527344 112.320312 L 206.207031 103.984375 C 206.058594 103.835938 205.96875 103.699219 205.910156 103.542969 C 205.84375 103.382812 205.808594 103.214844 205.808594 103.03125 C 205.808594 102.851562 205.84375 102.679688 205.910156 102.523438 C 205.980469 102.363281 206.070312 102.226562 206.207031 102.082031 L 216.667969 91.601562 C 216.8125 91.46875 216.949219 91.375 217.109375 91.308594 C 217.265625 91.242188 217.433594 91.207031 217.617188 91.207031 C 217.796875 91.207031 217.96875 91.242188 218.125 91.308594 C 218.285156 91.375 218.417969 91.46875 218.566406 91.601562 L 226.890625 99.949219 M 266.347656 65.824219 C 266.347656 65.824219 266.335938 65.824219 266.335938 65.824219 L 251.542969 65.824219 C 251.542969 65.824219 251.53125 65.824219 251.53125 65.824219 C 248.0625 65.824219 244.871094 67.25 242.597656 69.539062 C 240.3125 71.816406 238.890625 75.019531 238.890625 78.5 L 238.890625 81.566406 C 235.371094 82.6875 231.980469 84.105469 228.734375 85.769531 L 226.574219 83.605469 C 225.351562 82.382812 223.914062 81.441406 222.390625 80.820312 C 220.863281 80.199219 219.246094 79.890625 217.628906 79.890625 C 216.011719 79.890625 214.394531 80.199219 212.867188 80.820312 C 211.339844 81.441406 209.902344 82.371094 208.683594 83.605469 L 198.222656 94.082031 C 197 95.308594 196.0625 96.746094 195.4375 98.273438 C 194.816406 99.804688 194.511719 101.421875 194.511719 103.042969 C 194.511719 104.664062 194.816406 106.28125 195.4375 107.8125 C 196.0625 109.339844 197 110.78125 198.222656 112.003906 L 200.382812 114.167969 C 198.707031 117.40625 197.304688 120.816406 196.183594 124.335938 L 193.132812 124.335938 C 193.132812 124.335938 193.121094 124.335938 193.121094 124.335938 C 190.925781 124.335938 188.835938 124.914062 187.023438 125.910156 C 187.875 126.386719 188.710938 126.875 189.535156 127.371094 C 192.203125 128.992188 193.0625 132.480469 191.4375 135.15625 C 190.371094 136.910156 188.507812 137.882812 186.59375 137.882812 C 185.601562 137.882812 184.582031 137.625 183.667969 137.058594 C 182.660156 136.445312 181.628906 135.855469 180.589844 135.289062 C 180.511719 135.855469 180.476562 136.433594 180.476562 137.011719 L 180.476562 151.828125 C 180.476562 155.304688 181.902344 158.511719 184.1875 160.785156 C 186.460938 163.074219 189.648438 164.5 193.132812 164.5 C 193.132812 164.5 193.132812 164.5 193.144531 164.5 L 196.195312 164.5 C 197.316406 168.023438 198.730469 171.421875 200.390625 174.671875 L 198.234375 176.835938 C 197.011719 178.058594 196.074219 179.5 195.449219 181.027344 C 194.828125 182.554688 194.523438 184.175781 194.523438 185.796875 C 194.523438 187.414062 194.828125 189.035156 195.449219 190.566406 C 196.074219 192.09375 197.011719 193.53125 198.234375 194.753906 L 208.695312 205.234375 C 209.914062 206.457031 211.351562 207.394531 212.878906 208.019531 C 214.40625 208.640625 216.023438 208.949219 217.640625 208.949219 C 219.257812 208.949219 220.875 208.640625 222.398438 208.019531 C 223.925781 207.394531 225.363281 206.457031 226.585938 205.234375 L 228.746094 203.070312 C 231.980469 204.746094 235.371094 206.148438 238.902344 207.269531 L 238.902344 210.328125 C 238.902344 210.566406 238.910156 210.792969 238.921875 211.019531 C 239.851562 209.164062 241.773438 207.882812 243.988281 207.882812 C 247.109375 207.882812 249.644531 210.421875 249.644531 213.546875 C 249.644531 216.71875 248.671875 219.695312 247.007812 222.15625 C 248.421875 222.699219 249.960938 223.003906 251.554688 223.003906 C 251.554688 223.003906 251.554688 223.003906 251.566406 223.003906 L 266.359375 223.003906 C 266.359375 223.003906 266.371094 223.003906 266.371094 223.003906 C 269.84375 223.003906 273.03125 221.578125 275.304688 219.289062 C 277.589844 217.011719 279.015625 213.808594 279.015625 210.328125 L 279.015625 207.269531 C 282.53125 206.148438 285.9375 204.734375 289.171875 203.070312 L 291.332031 205.234375 C 292.550781 206.457031 293.988281 207.394531 295.515625 208.019531 C 297.042969 208.640625 298.660156 208.949219 300.277344 208.949219 C 301.894531 208.949219 303.511719 208.640625 305.035156 208.019531 C 306.5625 207.394531 308 206.457031 309.222656 205.234375 L 319.683594 194.753906 C 320.902344 193.53125 321.84375 192.09375 322.464844 190.566406 C 323.085938 189.035156 323.390625 187.414062 323.390625 185.796875 C 323.390625 184.175781 323.085938 182.554688 322.464844 181.027344 C 321.84375 179.5 320.914062 178.058594 319.683594 176.835938 L 317.523438 174.671875 C 319.195312 171.433594 320.597656 168.035156 321.71875 164.5 L 324.78125 164.5 C 328.253906 164.5 331.457031 163.074219 333.730469 160.785156 C 336.011719 158.511719 337.4375 155.304688 337.4375 151.828125 L 337.4375 137.011719 C 337.4375 133.535156 336.011719 130.328125 333.730469 128.050781 C 331.457031 125.777344 328.265625 124.335938 324.792969 124.335938 C 324.792969 124.335938 324.78125 124.335938 324.78125 124.335938 L 321.71875 124.335938 C 320.597656 120.816406 319.183594 117.40625 317.523438 114.167969 L 319.683594 112.003906 C 320.902344 110.78125 321.84375 109.339844 322.464844 107.8125 C 323.085938 106.28125 323.390625 104.664062 323.390625 103.042969 C 323.390625 101.421875 323.085938 99.804688 322.464844 98.273438 C 321.84375 96.746094 320.902344 95.308594 319.683594 94.082031 L 309.222656 83.605469 C 308 82.382812 306.5625 81.441406 305.035156 80.820312 C 303.511719 80.199219 301.894531 79.890625 300.277344 79.890625 C 298.660156 79.890625 297.042969 80.199219 295.515625 80.820312 C 293.988281 81.441406 292.550781 82.371094 291.332031 83.605469 L 289.171875 85.769531 C 285.9375 84.09375 282.53125 82.6875 279.015625 81.566406 L 279.015625 78.507812 C 279.015625 75.03125 277.589844 71.828125 275.304688 69.550781 C 273.007812 67.261719 269.820312 65.824219 266.347656 65.824219 "/>
</g>
<path style=" stroke:none;fill-rule:nonzero;fill:rgb(100%,100%,100%);fill-opacity:1;" d="M 243.957031 207.917969 C 241.738281 207.917969 239.816406 209.195312 238.890625 211.054688 C 239.058594 214.269531 240.449219 217.203125 242.574219 219.324219 C 243.796875 220.558594 245.300781 221.542969 246.964844 222.1875 C 248.625 219.730469 249.609375 216.75 249.597656 213.582031 C 249.609375 210.453125 247.078125 207.917969 243.957031 207.917969 M 186.992188 125.921875 C 185.9375 126.5 184.988281 127.226562 184.152344 128.0625 C 182.253906 129.957031 180.941406 132.503906 180.566406 135.300781 C 181.609375 135.867188 182.636719 136.457031 183.644531 137.070312 C 184.558594 137.625 185.566406 137.894531 186.574219 137.894531 C 188.484375 137.894531 190.351562 136.921875 191.414062 135.164062 C 193.03125 132.492188 192.183594 129.003906 189.511719 127.382812 C 188.675781 126.886719 187.839844 126.398438 186.992188 125.921875 "/>
</g>
</svg>
