<?xml version="1.0" encoding="UTF-8"?>
<svg xmlns="http://www.w3.org/2000/svg" xmlns:xlink="http://www.w3.org/1999/xlink" width="375pt" height="374.999991pt" viewBox="0 0 375 374.999991" version="1.2">
<defs>
<clipPath id="clip1">
  <path d="M 37.5 37.5 L 337.5 37.5 L 337.5 337.5 L 37.5 337.5 Z M 37.5 37.5 "/>
</clipPath>
</defs>
<g id="surface1">
<g clip-path="url(#clip1)" clip-rule="nonzero">
<path style=" stroke:none;fill-rule:nonzero;fill:rgb(100%,100%,100%);fill-opacity:1;" d="M 187.5 37.5 C 185.046875 37.5 182.589844 37.558594 180.140625 37.679688 C 177.6875 37.800781 175.242188 37.980469 172.796875 38.222656 C 170.355469 38.464844 167.917969 38.761719 165.492188 39.125 C 163.0625 39.484375 160.644531 39.902344 158.238281 40.382812 C 155.828125 40.859375 153.433594 41.398438 151.054688 41.996094 C 148.671875 42.589844 146.304688 43.246094 143.957031 43.957031 C 141.609375 44.671875 139.277344 45.441406 136.964844 46.269531 C 134.65625 47.09375 132.367188 47.980469 130.097656 48.917969 C 127.828125 49.859375 125.585938 50.851562 123.367188 51.902344 C 121.148438 52.953125 118.957031 54.054688 116.789062 55.210938 C 114.625 56.367188 112.488281 57.578125 110.382812 58.839844 C 108.277344 60.101562 106.207031 61.414062 104.164062 62.78125 C 102.125 64.144531 100.117188 65.554688 98.144531 67.019531 C 96.171875 68.480469 94.238281 69.992188 92.339844 71.546875 C 90.441406 73.105469 88.585938 74.707031 86.765625 76.355469 C 84.945312 78.007812 83.167969 79.699219 81.433594 81.433594 C 79.699219 83.167969 78.007812 84.945312 76.355469 86.765625 C 74.707031 88.585938 73.105469 90.441406 71.546875 92.339844 C 69.992188 94.238281 68.480469 96.171875 67.019531 98.144531 C 65.554688 100.117188 64.144531 102.125 62.78125 104.164062 C 61.414062 106.207031 60.101562 108.277344 58.839844 110.382812 C 57.578125 112.488281 56.367188 114.625 55.210938 116.789062 C 54.054688 118.957031 52.953125 121.148438 51.902344 123.367188 C 50.851562 125.585938 49.859375 127.828125 48.917969 130.097656 C 47.980469 132.367188 47.09375 134.65625 46.269531 136.964844 C 45.441406 139.277344 44.671875 141.609375 43.957031 143.957031 C 43.246094 146.304688 42.589844 148.671875 41.996094 151.054688 C 41.398438 153.433594 40.859375 155.828125 40.382812 158.238281 C 39.902344 160.644531 39.484375 163.0625 39.125 165.492188 C 38.761719 167.917969 38.464844 170.355469 38.222656 172.796875 C 37.980469 175.242188 37.800781 177.6875 37.679688 180.140625 C 37.558594 182.589844 37.5 185.046875 37.5 187.5 C 37.5 189.953125 37.558594 192.40625 37.679688 194.859375 C 37.800781 197.3125 37.980469 199.757812 38.222656 202.203125 C 38.464844 204.644531 38.761719 207.082031 39.125 209.507812 C 39.484375 211.9375 39.902344 214.355469 40.382812 216.761719 C 40.859375 219.171875 41.398438 221.566406 41.996094 223.945312 C 42.589844 226.328125 43.246094 228.695312 43.957031 231.042969 C 44.671875 233.390625 45.441406 235.722656 46.269531 238.035156 C 47.09375 240.34375 47.980469 242.632812 48.917969 244.902344 C 49.859375 247.171875 50.851562 249.414062 51.902344 251.632812 C 52.953125 253.851562 54.054688 256.042969 55.210938 258.210938 C 56.367188 260.375 57.578125 262.507812 58.839844 264.617188 C 60.101562 266.722656 61.414062 268.792969 62.78125 270.835938 C 64.144531 272.875 65.554688 274.882812 67.019531 276.855469 C 68.480469 278.828125 69.992188 280.761719 71.546875 282.660156 C 73.105469 284.554688 74.707031 286.414062 76.355469 288.234375 C 78.007812 290.050781 79.699219 291.832031 81.433594 293.566406 C 83.167969 295.300781 84.945312 296.992188 86.765625 298.640625 C 88.585938 300.292969 90.441406 301.894531 92.339844 303.453125 C 94.238281 305.007812 96.171875 306.519531 98.144531 307.980469 C 100.117188 309.445312 102.125 310.855469 104.164062 312.21875 C 106.207031 313.585938 108.277344 314.898438 110.382812 316.160156 C 112.488281 317.421875 114.625 318.632812 116.789062 319.789062 C 118.957031 320.945312 121.148438 322.046875 123.367188 323.097656 C 125.585938 324.148438 127.828125 325.140625 130.097656 326.082031 C 132.367188 327.019531 134.65625 327.90625 136.964844 328.730469 C 139.277344 329.558594 141.609375 330.328125 143.957031 331.039062 C 146.304688 331.753906 148.671875 332.40625 151.054688 333.003906 C 153.433594 333.601562 155.828125 334.140625 158.238281 334.617188 C 160.644531 335.097656 163.0625 335.515625 165.492188 335.875 C 167.917969 336.238281 170.355469 336.535156 172.796875 336.777344 C 175.242188 337.019531 177.6875 337.199219 180.140625 337.320312 C 182.589844 337.441406 185.046875 337.5 187.5 337.5 C 189.953125 337.5 192.40625 337.441406 194.859375 337.320312 C 197.3125 337.199219 199.757812 337.019531 202.203125 336.777344 C 204.644531 336.535156 207.082031 336.238281 209.507812 335.875 C 211.9375 335.515625 214.355469 335.097656 216.761719 334.617188 C 219.171875 334.140625 221.566406 333.601562 223.945312 333.003906 C 226.328125 332.40625 228.695312 331.753906 231.042969 331.039062 C 233.390625 330.328125 235.722656 329.558594 238.035156 328.730469 C 240.34375 327.90625 242.632812 327.019531 244.902344 326.082031 C 247.171875 325.140625 249.414062 324.148438 251.632812 323.097656 C 253.851562 322.046875 256.042969 320.945312 258.210938 319.789062 C 260.375 318.632812 262.507812 317.421875 264.617188 316.160156 C 266.722656 314.898438 268.792969 313.585938 270.835938 312.21875 C 272.875 310.855469 274.882812 309.445312 276.855469 307.980469 C 278.828125 306.519531 280.761719 305.007812 282.660156 303.453125 C 284.554688 301.894531 286.414062 300.292969 288.234375 298.640625 C 290.054688 296.992188 291.832031 295.300781 293.566406 293.566406 C 295.300781 291.832031 296.992188 290.050781 298.640625 288.234375 C 300.292969 286.414062 301.894531 284.554688 303.453125 282.660156 C 305.007812 280.761719 306.519531 278.828125 307.980469 276.855469 C 309.445312 274.882812 310.855469 272.875 312.21875 270.835938 C 313.585938 268.792969 314.898438 266.722656 316.160156 264.617188 C 317.421875 262.507812 318.632812 260.375 319.789062 258.210938 C 320.945312 256.042969 322.046875 253.851562 323.097656 251.632812 C 324.148438 249.414062 325.140625 247.171875 326.082031 244.902344 C 327.019531 242.632812 327.90625 240.34375 328.730469 238.035156 C 329.558594 235.722656 330.328125 233.390625 331.039062 231.042969 C 331.753906 228.695312 332.40625 226.328125 333.003906 223.945312 C 333.601562 221.566406 334.140625 219.171875 334.617188 216.761719 C 335.097656 214.355469 335.515625 211.9375 335.875 209.507812 C 336.238281 207.082031 336.535156 204.644531 336.777344 202.203125 C 337.019531 199.757812 337.199219 197.3125 337.320312 194.859375 C 337.441406 192.40625 337.5 189.953125 337.5 187.5 C 337.5 185.046875 337.441406 182.589844 337.320312 180.140625 C 337.199219 177.6875 337.019531 175.242188 336.777344 172.796875 C 336.535156 170.355469 336.238281 167.917969 335.875 165.492188 C 335.515625 163.0625 335.097656 160.644531 334.617188 158.238281 C 334.140625 155.828125 333.601562 153.433594 333.003906 151.054688 C 332.40625 148.671875 331.753906 146.304688 331.039062 143.957031 C 330.328125 141.609375 329.558594 139.277344 328.730469 136.964844 C 327.90625 134.65625 327.019531 132.367188 326.082031 130.097656 C 325.140625 127.828125 324.148438 125.585938 323.097656 123.367188 C 322.046875 121.148438 320.945312 118.957031 319.789062 116.789062 C 318.632812 114.625 317.421875 112.488281 316.160156 110.382812 C 314.898438 108.277344 313.585938 106.207031 312.21875 104.164062 C 310.855469 102.125 309.445312 100.117188 307.980469 98.144531 C 306.519531 96.171875 305.007812 94.238281 303.453125 92.339844 C 301.894531 90.441406 300.292969 88.585938 298.640625 86.765625 C 296.992188 84.945312 295.300781 83.167969 293.566406 81.433594 C 291.832031 79.699219 290.054688 78.007812 288.234375 76.355469 C 286.414062 74.707031 284.554688 73.105469 282.660156 71.546875 C 280.761719 69.992188 278.828125 68.480469 276.855469 67.019531 C 274.882812 65.554688 272.875 64.144531 270.835938 62.78125 C 268.792969 61.414062 266.722656 60.101562 264.617188 58.839844 C 262.507812 57.578125 260.375 56.367188 258.210938 55.210938 C 256.042969 54.054688 253.851562 52.953125 251.632812 51.902344 C 249.414062 50.851562 247.171875 49.859375 244.902344 48.917969 C 242.632812 47.980469 240.34375 47.09375 238.035156 46.269531 C 235.722656 45.441406 233.390625 44.671875 231.042969 43.957031 C 228.695312 43.246094 226.328125 42.589844 223.945312 41.996094 C 221.566406 41.398438 219.171875 40.859375 216.761719 40.382812 C 214.355469 39.902344 211.9375 39.484375 209.507812 39.125 C 207.082031 38.761719 204.644531 38.464844 202.203125 38.222656 C 199.757812 37.980469 197.3125 37.800781 194.859375 37.679688 C 192.40625 37.558594 189.953125 37.5 187.5 37.5 Z M 187.5 310.226562 C 185.492188 310.226562 183.484375 310.179688 181.476562 310.078125 C 179.472656 309.980469 177.46875 309.832031 175.46875 309.636719 C 173.472656 309.4375 171.480469 309.195312 169.492188 308.898438 C 167.503906 308.605469 165.527344 308.261719 163.558594 307.867188 C 161.585938 307.476562 159.628906 307.039062 157.679688 306.550781 C 155.730469 306.0625 153.796875 305.527344 151.875 304.941406 C 149.953125 304.359375 148.046875 303.730469 146.15625 303.054688 C 144.261719 302.375 142.390625 301.652344 140.535156 300.886719 C 138.679688 300.117188 136.84375 299.304688 135.027344 298.445312 C 133.210938 297.585938 131.417969 296.683594 129.648438 295.734375 C 127.875 294.789062 126.128906 293.800781 124.40625 292.765625 C 122.683594 291.734375 120.988281 290.660156 119.316406 289.542969 C 117.644531 288.429688 116.003906 287.273438 114.390625 286.074219 C 112.777344 284.878906 111.195312 283.644531 109.644531 282.371094 C 108.089844 281.09375 106.570312 279.785156 105.082031 278.433594 C 103.59375 277.085938 102.140625 275.703125 100.71875 274.28125 C 99.296875 272.859375 97.914062 271.40625 96.566406 269.917969 C 95.214844 268.429688 93.90625 266.910156 92.628906 265.355469 C 91.355469 263.804688 90.121094 262.222656 88.925781 260.609375 C 87.726562 258.996094 86.570312 257.355469 85.457031 255.683594 C 84.339844 254.011719 83.265625 252.316406 82.234375 250.59375 C 81.199219 248.871094 80.210938 247.125 79.265625 245.351562 C 78.316406 243.582031 77.414062 241.789062 76.554688 239.972656 C 75.695312 238.15625 74.882812 236.320312 74.113281 234.464844 C 73.347656 232.609375 72.625 230.738281 71.945312 228.84375 C 71.269531 226.953125 70.640625 225.046875 70.058594 223.125 C 69.472656 221.203125 68.9375 219.269531 68.449219 217.320312 C 67.960938 215.371094 67.523438 213.414062 67.132812 211.441406 C 66.738281 209.472656 66.394531 207.496094 66.101562 205.507812 C 65.804688 203.519531 65.5625 201.527344 65.363281 199.53125 C 65.167969 197.53125 65.019531 195.527344 64.921875 193.523438 C 64.820312 191.515625 64.773438 189.507812 64.773438 187.5 C 64.773438 185.492188 64.820312 183.484375 64.921875 181.476562 C 65.019531 179.472656 65.167969 177.46875 65.363281 175.46875 C 65.5625 173.472656 65.804688 171.480469 66.101562 169.492188 C 66.394531 167.503906 66.738281 165.527344 67.132812 163.558594 C 67.523438 161.585938 67.960938 159.628906 68.449219 157.679688 C 68.9375 155.730469 69.472656 153.796875 70.058594 151.875 C 70.640625 149.953125 71.269531 148.046875 71.945312 146.15625 C 72.625 144.261719 73.347656 142.390625 74.113281 140.535156 C 74.882812 138.679688 75.695312 136.84375 76.554688 135.027344 C 77.414062 133.210938 78.316406 131.417969 79.265625 129.648438 C 80.210938 127.875 81.199219 126.128906 82.234375 124.40625 C 83.265625 122.683594 84.339844 120.988281 85.457031 119.316406 C 86.570312 117.644531 87.726562 116.003906 88.925781 114.390625 C 90.121094 112.777344 91.355469 111.195312 92.628906 109.644531 C 93.90625 108.089844 95.214844 106.570312 96.566406 105.082031 C 97.914062 103.59375 99.296875 102.140625 100.71875 100.71875 C 102.140625 99.296875 103.59375 97.914062 105.082031 96.566406 C 106.570312 95.214844 108.089844 93.90625 109.644531 92.628906 C 111.195312 91.355469 112.777344 90.121094 114.390625 88.925781 C 116.003906 87.726562 117.644531 86.570312 119.316406 85.457031 C 120.988281 84.339844 122.683594 83.265625 124.40625 82.234375 C 126.128906 81.199219 127.875 80.210938 129.648438 79.265625 C 131.417969 78.316406 133.210938 77.414062 135.027344 76.554688 C 136.84375 75.695312 138.679688 74.882812 140.535156 74.113281 C 142.390625 73.347656 144.261719 72.625 146.15625 71.945312 C 148.046875 71.269531 149.953125 70.640625 151.875 70.058594 C 153.796875 69.472656 155.730469 68.9375 157.679688 68.449219 C 159.628906 67.960938 161.585938 67.523438 163.558594 67.132812 C 165.527344 66.738281 167.503906 66.394531 169.492188 66.101562 C 171.480469 65.804688 173.472656 65.5625 175.46875 65.363281 C 177.46875 65.167969 179.472656 65.019531 181.476562 64.921875 C 183.484375 64.820312 185.492188 64.773438 187.5 64.773438 C 189.507812 64.773438 191.515625 64.820312 193.523438 64.921875 C 195.527344 65.019531 197.53125 65.167969 199.53125 65.363281 C 201.527344 65.5625 203.519531 65.804688 205.507812 66.101562 C 207.496094 66.394531 209.472656 66.738281 211.441406 67.132812 C 213.414062 67.523438 215.371094 67.960938 217.320312 68.449219 C 219.269531 68.9375 221.203125 69.472656 223.125 70.058594 C 225.046875 70.640625 226.953125 71.269531 228.84375 71.945312 C 230.738281 72.625 232.609375 73.347656 234.464844 74.113281 C 236.320312 74.882812 238.15625 75.695312 239.972656 76.554688 C 241.789062 77.414062 243.582031 78.316406 245.351562 79.265625 C 247.125 80.210938 248.871094 81.199219 250.59375 82.234375 C 252.316406 83.265625 254.011719 84.339844 255.683594 85.457031 C 257.355469 86.570312 258.996094 87.726562 260.609375 88.925781 C 262.222656 90.121094 263.804688 91.355469 265.355469 92.628906 C 266.910156 93.90625 268.429688 95.214844 269.917969 96.566406 C 271.40625 97.914062 272.859375 99.296875 274.28125 100.71875 C 275.703125 102.140625 277.085938 103.59375 278.433594 105.082031 C 279.785156 106.570312 281.09375 108.089844 282.371094 109.644531 C 283.644531 111.195312 284.878906 112.777344 286.074219 114.390625 C 287.273438 116.003906 288.429688 117.644531 289.542969 119.316406 C 290.660156 120.988281 291.734375 122.683594 292.765625 124.40625 C 293.800781 126.128906 294.789062 127.875 295.734375 129.648438 C 296.683594 131.417969 297.585938 133.210938 298.445312 135.027344 C 299.304688 136.84375 300.117188 138.679688 300.886719 140.535156 C 301.652344 142.390625 302.375 144.261719 303.054688 146.15625 C 303.730469 148.046875 304.359375 149.953125 304.941406 151.875 C 305.527344 153.796875 306.0625 155.730469 306.550781 157.679688 C 307.039062 159.628906 307.476562 161.585938 307.867188 163.558594 C 308.261719 165.527344 308.605469 167.503906 308.898438 169.492188 C 309.195312 171.480469 309.4375 173.472656 309.636719 175.46875 C 309.832031 177.46875 309.980469 179.472656 310.078125 181.476562 C 310.179688 183.484375 310.226562 185.492188 310.226562 187.5 C 310.226562 189.507812 310.179688 191.515625 310.078125 193.523438 C 309.980469 195.527344 309.832031 197.53125 309.636719 199.53125 C 309.4375 201.527344 309.195312 203.519531 308.898438 205.507812 C 308.605469 207.496094 308.261719 209.472656 307.867188 211.441406 C 307.476562 213.414062 307.039062 215.371094 306.550781 217.320312 C 306.0625 219.269531 305.527344 221.203125 304.941406 223.125 C 304.359375 225.046875 303.730469 226.953125 303.054688 228.84375 C 302.375 230.738281 301.652344 232.609375 300.886719 234.464844 C 300.117188 236.320312 299.304688 238.15625 298.445312 239.972656 C 297.585938 241.789062 296.683594 243.582031 295.734375 245.351562 C 294.789062 247.125 293.800781 248.871094 292.765625 250.59375 C 291.734375 252.316406 290.660156 254.011719 289.542969 255.683594 C 288.429688 257.355469 287.273438 258.996094 286.074219 260.609375 C 284.878906 262.222656 283.644531 263.804688 282.371094 265.355469 C 281.09375 266.910156 279.785156 268.429688 278.433594 269.917969 C 277.085938 271.40625 275.703125 272.859375 274.28125 274.28125 C 272.859375 275.703125 271.40625 277.085938 269.917969 278.433594 C 268.429688 279.785156 266.910156 281.09375 265.355469 282.371094 C 263.804688 283.644531 262.222656 284.878906 260.609375 286.074219 C 258.996094 287.273438 257.355469 288.429688 255.683594 289.542969 C 254.011719 290.660156 252.316406 291.734375 250.59375 292.765625 C 248.871094 293.800781 247.125 294.789062 245.351562 295.734375 C 243.582031 296.683594 241.789062 297.585938 239.972656 298.445312 C 238.15625 299.304688 236.320312 300.117188 234.464844 300.886719 C 232.609375 301.652344 230.738281 302.375 228.84375 303.054688 C 226.953125 303.730469 225.046875 304.359375 223.125 304.941406 C 221.203125 305.527344 219.269531 306.0625 217.320312 306.550781 C 215.371094 307.039062 213.414062 307.476562 211.441406 307.867188 C 209.472656 308.261719 207.496094 308.605469 205.507812 308.898438 C 203.519531 309.195312 201.527344 309.4375 199.53125 309.636719 C 197.53125 309.832031 195.527344 309.980469 193.523438 310.078125 C 191.515625 310.179688 189.507812 310.226562 187.5 310.226562 Z M 187.5 310.226562 "/>
</g>
<path style=" stroke:none;fill-rule:nonzero;fill:rgb(100%,100%,100%);fill-opacity:1;" d="M 242.046875 146.589844 L 132.953125 146.589844 C 132.058594 146.589844 131.171875 146.679688 130.292969 146.851562 C 129.417969 147.027344 128.5625 147.285156 127.734375 147.628906 C 126.910156 147.972656 126.121094 148.390625 125.378906 148.890625 C 124.632812 149.386719 123.945312 149.953125 123.3125 150.585938 C 122.679688 151.21875 122.113281 151.90625 121.617188 152.652344 C 121.117188 153.394531 120.699219 154.179688 120.355469 155.007812 C 120.011719 155.835938 119.753906 156.6875 119.582031 157.566406 C 119.40625 158.445312 119.316406 159.332031 119.316406 160.226562 C 119.316406 161.121094 119.40625 162.007812 119.582031 162.886719 C 119.753906 163.765625 120.011719 164.617188 120.355469 165.445312 C 120.699219 166.273438 121.117188 167.058594 121.617188 167.804688 C 122.113281 168.546875 122.679688 169.238281 123.3125 169.871094 C 123.945312 170.503906 124.632812 171.066406 125.378906 171.566406 C 126.121094 172.0625 126.910156 172.484375 127.734375 172.824219 C 128.5625 173.167969 129.417969 173.425781 130.292969 173.601562 C 131.171875 173.777344 132.058594 173.863281 132.953125 173.863281 L 242.046875 173.863281 C 242.941406 173.863281 243.828125 173.777344 244.707031 173.601562 C 245.582031 173.425781 246.4375 173.167969 247.265625 172.824219 C 248.089844 172.484375 248.875 172.0625 249.621094 171.566406 C 250.367188 171.066406 251.054688 170.503906 251.6875 169.871094 C 252.320312 169.238281 252.886719 168.546875 253.382812 167.804688 C 253.882812 167.058594 254.300781 166.273438 254.644531 165.445312 C 254.988281 164.617188 255.246094 163.765625 255.417969 162.886719 C 255.59375 162.007812 255.683594 161.121094 255.683594 160.226562 C 255.683594 159.332031 255.59375 158.445312 255.417969 157.566406 C 255.246094 156.6875 254.988281 155.835938 254.644531 155.007812 C 254.300781 154.179688 253.882812 153.394531 253.382812 152.652344 C 252.886719 151.90625 252.320312 151.21875 251.6875 150.585938 C 251.054688 149.953125 250.367188 149.386719 249.621094 148.890625 C 248.875 148.390625 248.089844 147.972656 247.265625 147.628906 C 246.4375 147.285156 245.582031 147.027344 244.707031 146.851562 C 243.828125 146.679688 242.941406 146.589844 242.046875 146.589844 Z M 242.046875 146.589844 "/>
<path style=" stroke:none;fill-rule:nonzero;fill:rgb(100%,100%,100%);fill-opacity:1;" d="M 242.046875 201.136719 L 132.953125 201.136719 C 132.058594 201.136719 131.171875 201.222656 130.292969 201.398438 C 129.417969 201.574219 128.5625 201.832031 127.734375 202.175781 C 126.910156 202.515625 126.121094 202.9375 125.378906 203.433594 C 124.632812 203.933594 123.945312 204.496094 123.3125 205.128906 C 122.679688 205.761719 122.113281 206.453125 121.617188 207.195312 C 121.117188 207.941406 120.699219 208.726562 120.355469 209.554688 C 120.011719 210.382812 119.753906 211.234375 119.582031 212.113281 C 119.40625 212.992188 119.316406 213.878906 119.316406 214.773438 C 119.316406 215.667969 119.40625 216.554688 119.582031 217.433594 C 119.753906 218.3125 120.011719 219.164062 120.355469 219.992188 C 120.699219 220.816406 121.117188 221.605469 121.617188 222.347656 C 122.113281 223.09375 122.679688 223.78125 123.3125 224.414062 C 123.945312 225.046875 124.632812 225.613281 125.378906 226.109375 C 126.121094 226.609375 126.910156 227.027344 127.734375 227.371094 C 128.5625 227.714844 129.417969 227.972656 130.292969 228.148438 C 131.171875 228.320312 132.058594 228.410156 132.953125 228.410156 L 242.046875 228.410156 C 242.941406 228.410156 243.828125 228.320312 244.707031 228.148438 C 245.582031 227.972656 246.4375 227.714844 247.265625 227.371094 C 248.089844 227.027344 248.875 226.609375 249.621094 226.109375 C 250.367188 225.613281 251.054688 225.046875 251.6875 224.414062 C 252.320312 223.78125 252.886719 223.09375 253.382812 222.347656 C 253.882812 221.605469 254.300781 220.816406 254.644531 219.992188 C 254.988281 219.164062 255.246094 218.3125 255.417969 217.433594 C 255.59375 216.554688 255.683594 215.667969 255.683594 214.773438 C 255.683594 213.878906 255.59375 212.992188 255.417969 212.113281 C 255.246094 211.234375 254.988281 210.382812 254.644531 209.554688 C 254.300781 208.726562 253.882812 207.941406 253.382812 207.195312 C 252.886719 206.453125 252.320312 205.761719 251.6875 205.128906 C 251.054688 204.496094 250.367188 203.933594 249.621094 203.433594 C 248.875 202.9375 248.089844 202.515625 247.265625 202.175781 C 246.4375 201.832031 245.582031 201.574219 244.707031 201.398438 C 243.828125 201.222656 242.941406 201.136719 242.046875 201.136719 Z M 242.046875 201.136719 "/>
</g>
</svg>
